<?xml version="1.0"?>
<svg xmlns="http://www.w3.org/2000/svg" viewBox="0 0 512 512" width="512" height="512"><g id="Outline"><path d="M120,64h16V80h16V64h16V80h16V64h16V80h16V64h16V80h16V64h16V80h16V64h16V80h16V64h16V80h16V64h16V80h16V64h16V368h16V24a8,8,0,0,0-8-8H112a8,8,0,0,0-8,8V80h16Zm0-32H392V48H120Z"/><path d="M312,104a8,8,0,0,0-8-8H272a8,8,0,0,0-8,8v64a8,8,0,0,0,8,8h32a8,8,0,0,0,8-8Zm-16,8v16H280V112Zm-16,48V144h16v16Z"/><path d="M376,104a8,8,0,0,0-8-8H336a8,8,0,0,0-8,8v64a8,8,0,0,0,8,8h32a8,8,0,0,0,8-8Zm-16,8v16H344V112Zm-16,48V144h16v16Z"/><path d="M248,104a8,8,0,0,0-8-8H208a8,8,0,0,0-8,8v64a8,8,0,0,0,8,8h32a8,8,0,0,0,8-8Zm-16,8v16H216V112Zm-16,48V144h16v16Z"/><path d="M184,104a8,8,0,0,0-8-8H144a8,8,0,0,0-8,8v64a8,8,0,0,0,8,8h32a8,8,0,0,0,8-8Zm-16,8v16H152V112Zm-16,48V144h16v16Z"/><path d="M312,200a8,8,0,0,0-8-8H272a8,8,0,0,0-8,8v64a8,8,0,0,0,8,8h32a8,8,0,0,0,8-8Zm-16,8v16H280V208Zm-16,48V240h16v16Z"/><path d="M376,200a8,8,0,0,0-8-8H336a8,8,0,0,0-8,8v64a8,8,0,0,0,8,8h32a8,8,0,0,0,8-8Zm-16,8v16H344V208Zm-16,48V240h16v16Z"/><path d="M248,200a8,8,0,0,0-8-8H208a8,8,0,0,0-8,8v64a8,8,0,0,0,8,8h32a8,8,0,0,0,8-8Zm-16,8v16H216V208Zm-16,48V240h16v16Z"/><path d="M184,200a8,8,0,0,0-8-8H144a8,8,0,0,0-8,8v64a8,8,0,0,0,8,8h32a8,8,0,0,0,8-8Zm-16,8v16H152V208Zm-16,48V240h16v16Z"/><path d="M304,288H272a8,8,0,0,0-8,8v64a8,8,0,0,0,8,8h32a8,8,0,0,0,8-8V296A8,8,0,0,0,304,288Zm-8,16v16H280V304Zm-16,48V336h16v16Z"/><path d="M368,288H336a8,8,0,0,0-8,8v64a8,8,0,0,0,8,8h32a8,8,0,0,0,8-8V296A8,8,0,0,0,368,288Zm-8,16v16H344V304Zm-16,48V336h16v16Z"/><path d="M240,288H208a8,8,0,0,0-8,8v64a8,8,0,0,0,8,8h32a8,8,0,0,0,8-8V296A8,8,0,0,0,240,288Zm-8,16v16H216V304Zm-16,48V336h16v16Z"/><path d="M176,288H144a8,8,0,0,0-8,8v64a8,8,0,0,0,8,8h32a8,8,0,0,0,8-8V296A8,8,0,0,0,176,288Zm-8,16v16H152V304Zm-16,48V336h16v16Z"/><path d="M468,460.151a35.506,35.506,0,0,0,16.308-8.71,37.127,37.127,0,0,0,7.518-44.149,31.363,31.363,0,0,1-3.357-20.183h0a30.291,30.291,0,0,0,.323-9.2,29.366,29.366,0,0,0-25.5-25.722,28.862,28.862,0,0,0-22.43,7.145A29.7,29.7,0,0,0,431,381.474a30.05,30.05,0,0,0,.649,6.22c1.28,6.044.109,12.885-3.3,19.261a37.149,37.149,0,0,0-4.2,20.846A36.691,36.691,0,0,0,452,460.128V480H424V456a8,8,0,0,0-8-8h-8V384H392v64H376V392a8,8,0,0,0-8-8H336a8,8,0,0,0-8,8v56H312V392a8,8,0,0,0-8-8H208a8,8,0,0,0-8,8v56H184V392a8,8,0,0,0-8-8H144a8,8,0,0,0-8,8v56H120V96H104V448H96a8,8,0,0,0-8,8v24H60V460.151a35.506,35.506,0,0,0,16.308-8.71,37.127,37.127,0,0,0,7.518-44.149,31.363,31.363,0,0,1-3.357-20.183,30.291,30.291,0,0,0,.323-9.2,29.366,29.366,0,0,0-25.5-25.722,28.719,28.719,0,0,0-19.935,5.15l9.292,13.026a12.566,12.566,0,0,1,8.847-2.277A13.234,13.234,0,0,1,64.9,379.762a14.322,14.322,0,0,1-.146,4.347,47.406,47.406,0,0,0,4.883,30.575A21.129,21.129,0,0,1,65.4,439.736a19.87,19.87,0,0,1-5.4,3.586V395.79H44v47.523a20.679,20.679,0,0,1-11.913-16.925,21.2,21.2,0,0,1,2.377-11.894c5.18-9.7,6.9-20.39,4.838-30.115a14.1,14.1,0,0,1,.285-6.928l-15.32-4.613a30.093,30.093,0,0,0-.618,14.856c1.28,6.044.109,12.885-3.3,19.261a37.15,37.15,0,0,0-4.2,20.846A36.691,36.691,0,0,0,44,460.128V480H16v16H496V480H468Zm-27.913-33.763a21.2,21.2,0,0,1,2.377-11.894c5.18-9.7,6.9-20.39,4.838-30.115a14.062,14.062,0,0,1-.3-2.905,13.682,13.682,0,0,1,4.519-10.211A12.634,12.634,0,0,1,460.007,368a13.066,13.066,0,0,1,1.486.085A13.234,13.234,0,0,1,472.9,379.762a14.323,14.323,0,0,1-.146,4.347,47.406,47.406,0,0,0,4.883,30.575,21.129,21.129,0,0,1-4.236,25.052,19.87,19.87,0,0,1-5.4,3.586V395.79H452v47.523A20.679,20.679,0,0,1,440.087,426.388ZM360,400v16H344V400Zm-16,32h16v16H344Zm-48,16H264V400h32Zm-80-48h32v48H216Zm-48,0v16H152V400Zm-16,32h16v16H152Zm-48,48V464h96v16Zm112,0V464h80v16Zm96,0V464h96v16Z"/></g></svg>
